<svg width="132" height="132" viewBox="0 0 132 132" fill="none" xmlns="http://www.w3.org/2000/svg">
<g clip-path="url(#clip0_2012_1133)">
<g clip-path="url(#clip1_2012_1133)">
<g clip-path="url(#clip2_2012_1133)">
<g clip-path="url(#clip3_2012_1133)">
<path d="M121.154 41.1124C117.548 37.1895 110.722 35.1721 103.48 33.0436C100.373 32.1276 97.1677 31.1747 94.0324 30.0241C90.8695 28.8606 87.7616 27.3632 84.7377 25.9277C78.5919 22.9822 72.2381 19.9378 65.787 19.9378C59.3498 19.9378 52.996 22.9822 46.8503 25.9277C43.8259 27.3756 40.7045 28.8731 37.5412 30.0362C34.4198 31.1871 31.201 32.1276 28.0936 33.056C20.852 35.197 14.0264 37.2144 10.4195 41.1249C5.60553 46.3598 5.71651 54.1192 5.82749 62.3245C5.84146 63.562 5.85544 64.7874 5.85502 65.9999C5.85502 67.2129 5.84105 68.4379 5.81351 69.6754C5.70253 77.8928 5.59155 85.6401 10.4056 90.8875C14.0124 94.7983 20.838 96.8154 28.066 98.9563C31.1734 99.8723 34.3783 100.825 37.5276 101.976C40.6905 103.139 43.7983 104.624 46.8083 106.072C52.9681 109.03 59.3218 112.075 65.759 112.075C72.2102 112.075 78.5639 109.03 84.7097 106.085C87.7341 104.637 90.8415 103.139 94.0048 101.988C97.1262 100.837 100.317 99.8968 103.411 98.9809C110.694 96.8275 117.52 94.8104 121.127 90.8999C125.941 85.665 125.83 77.9056 125.719 69.7003C125.705 68.4504 125.677 67.2253 125.677 66.0124C125.677 64.7995 125.691 63.5744 125.719 62.349C125.871 54.1067 125.982 46.3473 121.154 41.1124ZM125.622 37.8454C119.157 30.8161 106.796 29.1455 96.2384 25.2592C86.7908 21.7942 77.1767 14.777 65.8009 14.7773C54.4252 14.7773 44.8111 21.7942 35.3631 25.2592C24.7917 29.1452 12.4447 30.8161 5.97998 37.8454C-1.03965 45.4688 0.09768 56.2231 0.09768 65.9999C0.09768 75.7643 -1.04006 86.5311 5.966 94.1544C12.4307 101.184 24.7917 102.854 35.3495 106.741C44.7971 110.218 54.4112 117.223 65.787 117.223C77.1627 117.223 86.7768 110.218 96.2244 106.741C106.796 102.855 119.143 101.184 125.608 94.1544C132.614 86.5311 131.476 75.7767 131.476 65.9999C131.504 56.2231 132.641 45.4688 125.622 37.8454ZM127.397 69.6384C127.522 78.1528 127.633 86.16 122.431 91.8155C118.518 96.0604 111.471 98.1519 104.007 100.355C100.9 101.271 97.7226 102.211 94.6707 103.337C91.5908 104.463 88.5249 105.936 85.556 107.359C79.2023 110.404 72.6681 113.535 65.8009 113.535C58.9338 113.535 52.3996 110.404 46.0734 107.372C43.0905 105.936 40.0107 104.463 36.9308 103.337C33.8369 102.199 30.6601 101.258 27.5806 100.355C20.1031 98.1519 13.0555 96.0604 9.15685 91.8155C3.96838 86.1721 4.07936 78.1527 4.19034 69.6633C4.20431 68.4258 4.23185 67.2129 4.23185 65.9999C4.23185 64.787 4.21788 63.5744 4.20431 62.3366C4.07936 53.8468 3.96838 45.8274 9.17083 40.1844C13.083 35.9395 20.1306 33.8605 27.5942 31.6451C30.688 30.7292 33.8649 29.7887 36.9448 28.6626C40.0246 27.5241 43.1045 26.0512 46.087 24.6282C52.4132 21.5962 58.9614 18.4528 65.8145 18.4528C72.6677 18.4528 79.2158 21.5838 85.5421 24.6157C88.5249 26.0512 91.6048 27.5241 94.6847 28.6502C97.7645 29.7887 100.955 30.7171 104.021 31.6326C111.485 33.8356 118.546 35.927 122.445 40.1719C127.647 45.8278 127.536 53.8347 127.411 62.3245C127.397 63.5744 127.37 64.7874 127.37 65.9875C127.37 67.2004 127.384 68.413 127.397 69.6384Z" fill="#546D92"/>
<g clip-path="url(#clip4_2012_1133)">
<g clip-path="url(#clip5_2012_1133)">
<g clip-path="url(#clip6_2012_1133)">
<g clip-path="url(#clip7_2012_1133)">
<g clip-path="url(#clip8_2012_1133)">
<g clip-path="url(#clip9_2012_1133)">
<path d="M56.3105 46.2948C56.3274 44.2914 56.3358 42.797 56.3358 41.8113V41.7387C56.3358 41.7104 56.331 41.6093 56.3218 41.436C56.3142 41.2626 56.3105 41.115 56.3105 40.9931C56.3105 40.5045 56.3554 40.2275 56.4452 40.1625C56.4696 40.1625 56.5041 40.1642 56.5489 40.1675C56.5938 40.1725 56.6283 40.175 56.6527 40.175C57.4192 40.1417 58.3095 40.1249 59.3228 40.1249H60.254C60.2896 40.1299 60.3381 40.1432 60.3998 40.165C60.4615 40.1882 60.5044 40.2 60.5288 40.2C60.5325 40.3984 60.5428 40.7422 60.5597 41.2308C60.5745 41.7194 60.5858 42.1433 60.5933 42.5018C60.5989 42.8603 60.5998 43.2123 60.5961 43.5576V45.942C60.5961 46.0921 60.6009 46.214 60.6102 46.3073C60.6194 46.4006 60.641 46.5107 60.6747 46.6375C60.7083 46.7644 60.77 46.8585 60.8598 46.9203C60.9495 46.9836 61.0626 47.0153 61.1991 47.0153C61.3899 47.0153 61.545 46.9435 61.6647 46.8002C61.7825 46.655 61.8414 46.4867 61.8414 46.2948V44.0605C61.8378 43.7871 61.8414 43.3567 61.8526 42.7695C61.8638 42.184 61.8647 41.7262 61.8554 41.3959V40.9556C61.8554 40.9123 61.8507 40.8447 61.8414 40.7529C61.8322 40.6611 61.8274 40.5903 61.8274 40.5403V40.2475C61.8423 40.1542 61.9023 40.0974 62.0069 40.0774C62.8839 40.0774 64.1982 40.0856 65.9503 40.1024V40.2H66.2532C66.2159 41.0674 66.1971 42.0772 66.1971 43.2299V44.5959C66.1971 44.7793 66.1923 45.0605 66.1831 45.4391C66.1738 45.8176 66.1691 46.0989 66.1691 46.2823C66.1691 46.8127 66.0757 47.2813 65.8886 47.6884C65.7015 48.0954 65.4547 48.4232 65.1482 48.6716C64.8433 48.9201 64.4742 49.1237 64.0403 49.2821C63.6064 49.4405 63.168 49.5506 62.7249 49.6124C62.2817 49.6724 61.805 49.7024 61.2945 49.7024C60.8009 49.7024 60.3389 49.6757 59.909 49.6224C59.4771 49.5673 59.0395 49.4615 58.5964 49.3046C58.1532 49.1478 57.7718 48.9468 57.4521 48.7017C57.1323 48.4582 56.8678 48.1305 56.6583 47.7184C56.4488 47.3063 56.333 46.8319 56.3105 46.2948ZM67.4424 48.5065V40.3701C67.4424 40.3418 67.4573 40.3176 67.4873 40.2976C67.5173 40.2775 67.5638 40.2633 67.6275 40.255C67.6912 40.2468 67.7473 40.24 67.7958 40.235C67.8443 40.2318 67.9127 40.2293 68.0005 40.2275C68.0903 40.2243 68.1511 40.2225 68.1828 40.2225H73.7418C74.1998 40.2225 74.6317 40.2868 75.0375 40.4152C75.4434 40.5435 75.804 40.7304 76.1201 40.9756C76.4343 41.219 76.683 41.5343 76.8662 41.9213C77.0476 42.3084 77.1382 42.7445 77.1382 43.2299C77.1382 43.5869 77.0914 43.9147 76.998 44.2131C76.9046 44.5101 76.7812 44.7636 76.6278 44.9737C76.4763 45.1821 76.2893 45.3698 76.0668 45.5367C75.8461 45.7051 75.6209 45.8402 75.3909 45.942C75.159 46.0438 74.9037 46.1296 74.6252 46.1997C74.3467 46.2715 74.0904 46.324 73.8567 46.3573C73.6211 46.3891 73.3735 46.4131 73.1135 46.4299H71.7981C71.7625 47.0686 71.7448 47.7852 71.7448 48.5791V49.2646C71.7299 49.4115 71.6522 49.4848 71.512 49.4848H67.6219C67.5021 49.2028 67.4424 48.8768 67.4424 48.5065ZM71.3045 44.2306L71.5232 44.4984C71.712 44.4984 71.8915 44.4866 72.0617 44.4633C72.2337 44.4383 72.4019 44.395 72.5666 44.3332C72.7293 44.2732 72.8703 44.1949 72.9901 44.098C73.1079 44.003 73.2032 43.8811 73.2762 43.7328C73.3491 43.5844 73.3856 43.4168 73.3856 43.2299C73.3856 43.0865 73.364 42.9589 73.321 42.8471C73.2781 42.7352 73.2257 42.6437 73.164 42.5718C73.1023 42.5 73.0181 42.4385 72.9116 42.3867C72.803 42.3334 72.702 42.2934 72.6087 42.2666C72.5153 42.2398 72.3963 42.2198 72.2525 42.2066C72.1103 42.1915 71.9916 42.1833 71.8963 42.1815C71.8029 42.1798 71.6831 42.179 71.5373 42.179C71.3822 42.2441 71.3045 42.9279 71.3045 44.2306Z" fill="white"/>
<path d="M56.0132 52.5796C56.0132 52.5063 56.018 52.3977 56.0272 52.2544C56.0365 52.1092 56.0412 52.0099 56.0412 51.9566C56.0412 51.9366 56.0365 51.8633 56.0272 51.7364C56.018 51.6113 56.0132 51.5013 56.0132 51.4062C56.0132 50.9758 56.0589 50.7607 56.1506 50.7607C56.1862 50.7607 56.2179 50.7649 56.246 50.7732C57.1996 50.7732 58.6131 50.7624 60.4867 50.7407C62.3622 50.7206 63.7654 50.7106 64.6965 50.7106C64.9285 50.7106 65.0752 50.7289 65.1369 50.7657C65.1986 50.8025 65.2294 50.874 65.2294 50.9809V51.151C65.2294 51.3629 65.2322 51.6756 65.2378 52.0892C65.2415 52.5013 65.2434 52.8155 65.2434 53.0325C65.2434 53.2444 65.1798 53.3502 65.0527 53.3502C64.7967 53.3502 64.4152 53.346 63.9084 53.3377C63.4016 53.3294 63.0202 53.3252 62.7641 53.3252V59.8728C62.7324 59.9947 62.6547 60.0597 62.5313 60.068C62.3723 60.068 62.1395 60.0662 61.8329 60.063C61.5281 60.058 61.2953 60.0555 61.1346 60.0555C61.1253 60.0555 61.1158 60.0597 61.1065 60.068C60.9065 60.068 60.6249 60.0662 60.2623 60.063C59.8997 60.058 59.6293 60.0555 59.4517 60.0555H59.0395C58.9477 60.0637 58.8151 60.068 58.6412 60.068L58.3691 59.7752C58.3691 59.1565 58.3916 58.2365 58.4364 57.0156C58.4833 55.7929 58.5066 54.8722 58.5066 54.2534C58.5066 54.2251 58.5046 54.1784 58.501 54.1133C58.499 54.0483 58.4981 53.9957 58.4981 53.9557C58.4981 53.9139 58.4953 53.8624 58.4897 53.8006C58.4822 53.7405 58.4701 53.6912 58.4533 53.6529C58.4384 53.6129 58.4196 53.5736 58.3972 53.5354C58.3728 53.4971 58.3419 53.4686 58.3046 53.4503C58.2654 53.432 58.2185 53.4228 58.1644 53.4228H56.2039C56.0768 53.391 56.0132 53.11 56.0132 52.5796ZM65.1958 55.3042V54.6337C65.2406 54.0633 65.38 53.5429 65.6137 53.0725C65.8456 52.6021 66.141 52.2061 66.5 51.8841C66.859 51.5621 67.2732 51.2903 67.7424 51.0684C68.2136 50.8465 68.7053 50.6849 69.2177 50.583C69.7318 50.4812 70.263 50.4304 70.8108 50.4304C71.1117 50.4304 71.4258 50.4529 71.7532 50.498C72.0785 50.543 72.4235 50.6138 72.7881 50.7106C73.1547 50.809 73.5052 50.9526 73.8398 51.141C74.1764 51.3311 74.4541 51.5546 74.6728 51.8115C75.1236 52.3036 75.4506 52.819 75.6545 53.3577C75.8584 53.8981 75.9602 54.4979 75.9602 55.1566C75.9734 56.5345 75.6349 57.6428 74.9449 58.4817L74.6448 58.847C74.3792 59.1723 74.0006 59.4442 73.5089 59.6627C73.0153 59.8811 72.5216 60.0322 72.028 60.1155C71.5364 60.1988 71.0388 60.2406 70.5359 60.2406C69.9469 60.2406 69.4037 60.1873 68.9064 60.0805C68.4091 59.9754 67.98 59.8328 67.619 59.6527C67.2581 59.4743 66.9366 59.2566 66.6542 58.9996C66.3718 58.7427 66.1401 58.4717 65.9586 58.1865C65.7791 57.903 65.6305 57.5935 65.5127 57.2583C65.3969 56.9248 65.3144 56.5995 65.2659 56.2825C65.219 55.964 65.1958 55.6378 65.1958 55.3042ZM70.6453 52.8848C70.4582 52.8848 70.2911 52.9241 70.1433 53.0024C69.9938 53.0792 69.872 53.1726 69.7786 53.2827C69.6853 53.3927 69.6048 53.5404 69.5374 53.7255C69.4682 53.9106 69.4177 54.0775 69.386 54.2259C69.3543 54.3743 69.3291 54.5619 69.3103 54.7888C69.2915 55.014 69.2814 55.1892 69.2794 55.3142C69.2774 55.4376 69.2766 55.597 69.2766 55.7921C69.2766 55.9805 69.2842 56.1592 69.299 56.3275C69.3159 56.4959 69.3504 56.6753 69.4028 56.8655C69.4553 57.0539 69.5234 57.219 69.6076 57.3609C69.6937 57.501 69.8103 57.6186 69.9581 57.7136C70.106 57.8105 70.2759 57.862 70.4686 57.8688C70.6686 57.8688 70.8464 57.8395 71.0015 57.7812C71.1566 57.7229 71.2867 57.6478 71.3913 57.556C71.496 57.4642 71.5857 57.3408 71.6606 57.1857C71.7335 57.0306 71.7888 56.8822 71.8261 56.7404C71.8653 56.597 71.8954 56.4194 71.9158 56.2074C71.9363 55.9955 71.9495 55.8139 71.9551 55.662C71.9587 55.5087 71.9607 55.316 71.9607 55.0841C71.9607 54.9139 71.9551 54.7556 71.9439 54.6087C71.9327 54.4618 71.913 54.2985 71.885 54.1183C71.8569 53.9399 71.8112 53.7823 71.7475 53.6454C71.6839 53.5086 71.6065 53.3802 71.5148 53.2601C71.423 53.14 71.3036 53.0475 71.1558 52.9824C71.0079 52.9174 70.838 52.8848 70.6453 52.8848Z" fill="white"/>
<path d="M47.563 70.116V61.4917C47.563 61.4467 47.591 61.4066 47.6471 61.3716C47.7052 61.3383 47.7882 61.3123 47.8967 61.294C48.007 61.2758 48.1175 61.2598 48.2277 61.2465C48.3362 61.2348 48.4669 61.2272 48.6204 61.224C48.7738 61.219 48.9 61.2165 48.999 61.2165C49.1 61.2165 49.2158 61.2172 49.3468 61.219C49.4758 61.2222 49.5524 61.224 49.5768 61.224H50.3424C50.4939 61.224 50.7051 61.2197 50.9763 61.2115C51.2475 61.2032 51.4467 61.199 51.5737 61.199C53.7521 61.199 55.3087 61.5325 56.2435 62.1998L56.4903 62.3949C56.5689 62.46 56.6558 62.545 56.7512 62.6501C56.8465 62.7534 56.9643 62.9103 57.1046 63.1205C57.2428 63.3289 57.3674 63.5558 57.4776 63.801C57.5878 64.0445 57.6815 64.3457 57.7581 64.7042C57.8366 65.0628 57.8759 65.434 57.8759 65.8176C57.8759 66.4113 57.7842 66.9667 57.601 67.4839C57.4179 68.0011 57.1682 68.4489 56.8522 68.8275C56.5344 69.206 56.1622 69.533 55.7359 69.8082C55.3076 70.0834 54.8448 70.2894 54.3476 70.4262C53.8503 70.5613 53.337 70.6289 52.8078 70.6289H52.589C52.3927 70.6289 52.1001 70.6246 51.7111 70.6164C51.3241 70.6096 51.0324 70.6064 50.8361 70.6064C49.6898 70.6064 48.6532 70.6221 47.7257 70.6539C47.6171 70.4587 47.563 70.2793 47.563 70.116ZM51.5877 68.5047C51.8626 68.5047 52.1094 68.4772 52.3282 68.4221C52.5469 68.3671 52.732 68.2945 52.8835 68.2045C53.033 68.1144 53.1648 68.0001 53.279 67.8617C53.3931 67.7233 53.4837 67.5815 53.551 67.4364C53.6164 67.2895 53.6688 67.1211 53.7081 66.931C53.7473 66.7426 53.7734 66.5632 53.7866 66.393C53.7998 66.2247 53.8062 66.036 53.8062 65.8276V65.4498C53.8062 64.701 53.6399 64.148 53.307 63.791C52.9741 63.4357 52.3927 63.2473 51.5625 63.2256C51.5381 63.2706 51.5016 63.3324 51.4531 63.4107C51.4026 63.4875 51.3653 63.5483 51.3409 63.5934V63.8861C51.3409 63.9479 51.339 64.1063 51.3353 64.3615C51.2756 67.0903 51.3597 68.4714 51.5877 68.5047ZM57.458 70.4587C57.7404 69.5263 58.0526 68.5798 58.3947 67.619C58.7369 66.6583 59.1624 65.5091 59.6709 64.1713C60.1813 62.8335 60.53 61.9078 60.717 61.3941C60.7712 61.3123 60.8076 61.2633 60.8264 61.2465H61.9763C62.2456 61.2465 62.643 61.2423 63.1683 61.234C63.6936 61.2272 64.0911 61.224 64.3603 61.224H65.5103C65.5776 61.224 65.6345 61.2247 65.6813 61.2265C65.7262 61.2282 65.7803 61.2333 65.844 61.2415C65.9094 61.2498 65.961 61.2623 65.9983 61.279C66.0375 61.294 66.0712 61.3183 66.0992 61.3516C66.1253 61.3834 66.1385 61.4216 66.1385 61.4667L69.2966 70.3912C69.2966 70.473 69.2629 70.5288 69.1956 70.5588C69.1303 70.5906 69.0057 70.6064 68.8226 70.6064H68.1943C68.0112 70.6064 67.7391 70.6081 67.3782 70.6114C67.0172 70.6146 66.7463 70.6164 66.5648 70.6164C66.5087 70.6164 66.3974 70.6196 66.2311 70.6264C66.0647 70.6331 65.9245 70.6356 65.8104 70.6339C65.6962 70.6306 65.57 70.6239 65.4317 70.6139C65.2915 70.6038 65.1793 70.5813 65.0952 70.5463C65.011 70.513 64.9577 70.467 64.9353 70.4087V70.0059C64.8885 69.8025 64.8082 69.6156 64.6941 69.4454C64.5799 69.2736 64.4593 69.1877 64.3323 69.1877H61.9763L61.6201 70.4838C61.5697 70.5806 61.3144 70.6289 60.8545 70.6289H60.3047C60.1084 70.6289 59.8167 70.6356 59.4297 70.6489C59.0407 70.6606 58.7481 70.6664 58.5518 70.6664H58.3611C58.2882 70.6664 58.1732 70.6681 58.0161 70.6714C57.8571 70.6764 57.7348 70.6789 57.6487 70.6789C57.6114 70.6456 57.5477 70.5721 57.458 70.4587ZM62.756 64.6317L62.2091 66.7508L62.3998 67.0386H62.8514C63.218 67.0386 63.5526 67.0193 63.8555 66.981C64.1584 66.941 64.3098 66.8784 64.3098 66.7934L63.4292 63.2756C63.347 63.2756 63.2356 63.414 63.0954 63.6909C62.9571 63.9679 62.8438 64.2814 62.756 64.6317ZM68.1242 63.1405C68.1242 63.0672 68.129 62.9586 68.1383 62.8152C68.1475 62.6701 68.1523 62.5708 68.1523 62.5175C68.1523 62.4975 68.1475 62.4242 68.1383 62.2973C68.129 62.1722 68.1242 62.0622 68.1242 61.9671C68.1242 61.5367 68.1699 61.3216 68.2617 61.3216C68.299 61.3216 68.3309 61.3258 68.357 61.3341C69.3126 61.3341 70.727 61.3233 72.6005 61.3016C74.4741 61.2815 75.8764 61.2715 76.8076 61.2715C77.0412 61.2715 77.189 61.2898 77.2507 61.3266C77.3105 61.3634 77.3405 61.4349 77.3405 61.5417V61.7119C77.3405 61.9238 77.3433 62.2365 77.3489 62.6501C77.3525 63.0622 77.3545 63.3764 77.3545 63.5934C77.3545 63.8053 77.2908 63.9111 77.1638 63.9111C76.9077 63.9111 76.5263 63.9068 76.0195 63.8986C75.5127 63.8903 75.1323 63.8861 74.8779 63.8861V70.4337C74.8443 70.5556 74.7666 70.6206 74.6452 70.6289C74.4844 70.6289 74.2517 70.6271 73.9468 70.6239C73.6402 70.6189 73.4074 70.6164 73.2484 70.6164C73.2392 70.6164 73.2296 70.6206 73.2204 70.6289C73.0184 70.6289 72.736 70.6271 72.3734 70.6239C72.0107 70.6189 71.7403 70.6164 71.5628 70.6164H71.1505C71.0608 70.6246 70.9289 70.6289 70.755 70.6289L70.4802 70.3361C70.4802 69.7174 70.5035 68.7974 70.5503 67.5765C70.5952 66.3538 70.6176 65.433 70.6176 64.8143C70.6176 64.786 70.6168 64.7393 70.6148 64.6742C70.6128 64.6091 70.612 64.5566 70.612 64.5166C70.612 64.4748 70.6084 64.4233 70.6008 64.3615C70.5932 64.3014 70.582 64.2521 70.5671 64.2138C70.5503 64.1738 70.5307 64.1345 70.5082 64.0962C70.4858 64.058 70.4549 64.0294 70.4157 64.0112C70.3764 63.9929 70.3296 63.9837 70.2754 63.9837H68.3178C68.1887 63.9519 68.1242 63.6709 68.1242 63.1405ZM77.8902 70.2386V70.0059C77.8902 69.3103 77.8995 68.282 77.9182 66.921C77.9351 65.5616 77.9435 64.5341 77.9435 63.8385V61.3091H85.9144V63.3131C85.9144 63.3249 85.9144 63.3549 85.9144 63.4032C85.9144 63.4515 85.9144 63.484 85.9144 63.5008C85.9144 63.5175 85.9125 63.5476 85.9088 63.5909C85.9032 63.6326 85.8948 63.6617 85.8836 63.6784C85.8724 63.6952 85.8564 63.7184 85.8359 63.7485C85.8154 63.7785 85.791 63.8003 85.763 63.8135C85.7369 63.8253 85.7004 63.836 85.6536 63.8461C85.6087 63.8561 85.5591 63.8611 85.505 63.8611H85.3114C84.1298 63.8611 83.0528 63.8453 82.0804 63.8135C82.0712 63.8786 82.056 63.9794 82.0355 64.1163C82.0151 64.2514 81.9991 64.3715 81.9879 64.4765C81.9766 64.5799 81.971 64.68 81.971 64.7768H85.2301C85.3667 64.7768 85.4581 64.7935 85.505 64.8268C85.5498 64.8601 85.5723 64.9126 85.5723 64.9844C85.5723 65.0062 85.5703 65.0395 85.5667 65.0845C85.561 65.1278 85.5582 65.1603 85.5582 65.1821C85.5582 65.3773 85.5647 65.6657 85.5779 66.0478C85.5927 66.4313 85.6003 66.7208 85.6003 66.916C85.5854 66.9978 85.549 67.0386 85.4909 67.0386C85.4629 67.0386 85.4396 67.0303 85.4208 67.0135C83.9792 67.0786 82.9114 67.1111 82.2178 67.1111H82.0383V67.9918C82.4459 67.9918 83.034 67.975 83.8025 67.9418C84.571 67.91 85.1468 67.8942 85.5302 67.8942C85.8331 67.8942 86.007 67.951 86.0519 68.0644V68.5297C86.0519 68.7249 86.0566 69.0134 86.0659 69.3954C86.0751 69.779 86.0799 70.0684 86.0799 70.2636C86.0799 70.467 85.9882 70.5688 85.8051 70.5688C85.5675 70.5688 85.202 70.5671 84.7084 70.5638C84.2168 70.5588 83.8426 70.5563 83.5865 70.5563C82.9283 70.5563 81.9879 70.5713 80.765 70.6013C79.5422 70.6331 78.6567 70.6506 78.109 70.6539L77.9182 70.4587C77.8995 70.3454 77.8902 70.2718 77.8902 70.2386Z" fill="white"/>
<path d="M55.8169 81.0194C56.0993 80.0869 56.4115 79.1404 56.7537 78.1797C57.0958 77.2189 57.5221 76.0698 58.0326 74.732C58.5411 73.3942 58.8889 72.4685 59.076 71.9548C59.1301 71.873 59.1665 71.8239 59.1853 71.8072H60.3353C60.6045 71.8072 61.0019 71.8029 61.5273 71.7947C62.0526 71.7879 62.45 71.7847 62.7193 71.7847H63.8692C63.9385 71.7847 63.9954 71.7854 64.0403 71.7872C64.0851 71.7889 64.1404 71.7939 64.2057 71.8022C64.2694 71.8104 64.3199 71.8229 64.3572 71.8397C64.3965 71.8547 64.4301 71.879 64.4582 71.9123C64.4862 71.944 64.5002 71.9823 64.5002 72.0274L67.6555 80.9519C67.6555 81.0337 67.6227 81.0895 67.5574 81.1195C67.4901 81.1513 67.3658 81.167 67.1843 81.167H66.5533C66.3701 81.167 66.0981 81.1688 65.7371 81.172C65.3781 81.1753 65.1069 81.177 64.9238 81.177C64.8696 81.177 64.7583 81.1803 64.59 81.187C64.4237 81.1938 64.2834 81.1963 64.1693 81.1945C64.0551 81.1913 63.9289 81.1845 63.7907 81.1745C63.6504 81.1645 63.5382 81.142 63.4541 81.107C63.3699 81.0737 63.3167 81.0277 63.2942 80.9694V80.5666C63.2474 80.3631 63.1672 80.1762 63.053 80.0061C62.9389 79.8342 62.8183 79.7484 62.6912 79.7484H60.3353L59.9791 81.0444C59.9286 81.1413 59.6734 81.1895 59.2134 81.1895H58.6637C58.4673 81.1895 58.1756 81.1963 57.7886 81.2096C57.3996 81.2213 57.1071 81.2271 56.9107 81.2271H56.72C56.6471 81.2271 56.5321 81.2288 56.375 81.2321C56.218 81.2371 56.0954 81.2396 56.0076 81.2396C55.972 81.2063 55.9086 81.1327 55.8169 81.0194ZM61.115 75.1923L60.5681 77.3115L60.7616 77.5992H61.2131C61.5777 77.5992 61.9115 77.58 62.2144 77.5417C62.5193 77.5017 62.6716 77.4391 62.6716 77.354L61.7881 73.8363C61.7059 73.8363 61.5946 73.9746 61.4543 74.2516C61.3161 74.5286 61.2028 74.8421 61.115 75.1923ZM66.486 73.7012C66.486 73.6279 66.4896 73.5193 66.4972 73.3759C66.5064 73.2308 66.5112 73.1315 66.5112 73.0782C66.5112 73.0582 66.5064 72.9849 66.4972 72.858C66.4896 72.7329 66.486 72.6228 66.486 72.5278C66.486 72.0974 66.5308 71.8822 66.6206 71.8822C66.6579 71.8822 66.6907 71.8865 66.7188 71.8948C67.6724 71.8948 69.0859 71.884 70.9595 71.8622C72.833 71.8422 74.2353 71.8322 75.1665 71.8322C75.4001 71.8322 75.5479 71.8505 75.6097 71.8872C75.6714 71.924 75.7022 71.9956 75.7022 72.1024V72.2725C75.7022 72.4845 75.7042 72.7972 75.7078 73.2108C75.7134 73.6229 75.7162 73.9371 75.7162 74.154C75.7162 74.3659 75.6517 74.4718 75.5227 74.4718C75.2666 74.4718 74.8852 74.4675 74.3784 74.4593C73.8716 74.451 73.4913 74.4468 73.2369 74.4468V80.9944C73.2052 81.1162 73.1275 81.1813 73.0041 81.1895C72.8434 81.1895 72.6106 81.1878 72.3057 81.1845C71.9992 81.1795 71.7664 81.177 71.6073 81.177C71.5981 81.177 71.5886 81.1813 71.5793 81.1895C71.3793 81.1895 71.0969 81.1878 70.7323 81.1845C70.3696 81.1795 70.0993 81.177 69.9217 81.177H69.5122C69.4205 81.1853 69.2879 81.1895 69.114 81.1895L68.8391 80.8968C68.8391 80.2781 68.8624 79.3581 68.9092 78.1371C68.9541 76.9144 68.9765 75.9937 68.9765 75.375C68.9765 75.3467 68.9757 75.2999 68.9737 75.2349C68.9718 75.1698 68.9709 75.1173 68.9709 75.0772C68.9709 75.0355 68.9673 74.9839 68.9597 74.9221C68.9521 74.8621 68.9409 74.8128 68.9261 74.7745C68.9092 74.7345 68.8896 74.6952 68.8672 74.6569C68.8447 74.6186 68.8139 74.5901 68.7746 74.5719C68.7353 74.5536 68.6885 74.5443 68.6344 74.5443H66.6767C66.5496 74.5126 66.486 74.2316 66.486 73.7012Z" fill="white"/>
<path d="M50.0674 91.7378L49.2175 86.8165C49.1987 86.9266 49.1634 87.185 49.111 87.5921C49.0585 87.9992 49.0007 88.426 48.9371 88.8731C48.8734 89.3217 48.8024 89.7713 48.7239 90.2217C48.6473 90.672 48.5584 91.043 48.4575 91.335C48.3565 91.6285 48.2555 91.7754 48.1546 91.7754C47.9582 91.7754 47.6685 91.7711 47.2851 91.7629C46.9017 91.7546 46.612 91.7504 46.4156 91.7504C45.535 91.7504 44.7224 91.7671 43.9784 91.8004C43.9147 91.7721 43.8586 91.7271 43.8101 91.6653C43.7632 91.6052 43.7251 91.5319 43.6951 91.4451C43.6651 91.36 43.6418 91.2842 43.625 91.2174C43.6101 91.1491 43.5941 91.0631 43.5773 90.9597C43.5624 90.8564 43.5501 90.7863 43.5408 90.7496C42.7519 87.3902 42.2627 85.3461 42.074 84.6173L41.5972 82.5631C41.5972 82.4498 41.6608 82.373 41.7879 82.333C41.8981 82.3412 42.0712 82.3455 42.3068 82.3455H42.8565C42.965 82.3455 43.1221 82.3412 43.3277 82.333C43.5333 82.3247 43.6819 82.3205 43.7736 82.3205C43.8597 82.3155 43.9876 82.3162 44.1579 82.323C44.3261 82.3297 44.4355 82.333 44.486 82.333H44.8815C44.9283 82.3412 44.9973 82.3455 45.089 82.3455H45.2938C45.3759 82.3655 45.4584 82.5056 45.5406 82.7658C45.6228 83.026 45.7004 83.3845 45.7734 83.8416C45.8463 84.297 45.9052 84.6948 45.9501 85.0351C45.9969 85.3753 46.0482 85.7864 46.1043 86.2686C46.1624 86.7522 46.1913 86.9974 46.1913 87.0041L47.0607 82.3555C47.2795 82.3722 47.4525 82.3805 47.5796 82.3805H48.0059C48.3742 82.3805 48.909 82.3788 49.6102 82.3755C50.3114 82.3705 50.8358 82.368 51.1836 82.368C51.279 82.368 51.3379 82.4005 51.3603 82.4656L52.2158 87.517C52.3035 86.5896 52.4112 85.7406 52.5383 84.97L52.9478 82.4906C52.9814 82.3938 53.1413 82.3455 53.4274 82.3455H53.7583C53.8125 82.3405 53.8977 82.3412 54.0136 82.348C54.1294 82.353 54.2127 82.3555 54.2632 82.3555H54.8662C55.0345 82.3555 55.2252 82.358 55.4384 82.363C55.6496 82.3662 55.7601 82.368 55.7693 82.368H56.5771C56.6183 82.368 56.6463 82.3955 56.6612 82.4506C56.6744 82.5056 56.6856 82.5964 56.6949 82.7233L54.4904 91.7153C54.3987 91.7236 54.2893 91.7278 54.1622 91.7278C54.0332 91.7278 53.9162 91.7261 53.8116 91.7228C53.707 91.7211 53.5864 91.7196 53.4498 91.7178C53.3116 91.7161 53.1994 91.7153 53.1133 91.7153C52.9262 91.7153 52.6421 91.7128 52.2606 91.7078C51.8792 91.7046 51.5931 91.7028 51.4024 91.7028C51.378 91.7028 50.9332 91.7146 50.0674 91.7378ZM56.6808 86.9866V86.3161C56.7257 85.7456 56.8651 85.2252 57.0987 84.7549C57.3307 84.2845 57.626 83.8884 57.985 83.5664C58.344 83.2444 58.7583 82.9727 59.2275 82.7508C59.6987 82.5289 60.1904 82.3672 60.7028 82.2654C61.2169 82.1636 61.7481 82.1128 62.2958 82.1128C62.5968 82.1128 62.9109 82.1353 63.2382 82.1803C63.5636 82.2254 63.9094 82.2962 64.276 82.393C64.6406 82.4913 64.9903 82.635 65.3249 82.8233C65.6615 83.0135 65.9391 83.2369 66.1579 83.4939C66.6103 83.986 66.9376 84.5014 67.1396 85.0401C67.3435 85.5805 67.4453 86.1802 67.4453 86.839C67.4585 88.2168 67.1208 89.3252 66.4328 90.1641L66.1299 90.5294C65.8662 90.8546 65.4876 91.1266 64.994 91.345C64.5003 91.5635 64.0076 91.7146 63.5159 91.7979C63.0223 91.8812 62.5239 91.923 62.021 91.923C61.432 91.923 60.8887 91.8697 60.3915 91.7629C59.8942 91.6578 59.4651 91.5152 59.1041 91.335C58.7431 91.1566 58.4217 90.939 58.1393 90.682C57.8568 90.4251 57.6252 90.1541 57.4437 89.8689C57.2642 89.5854 57.1164 89.2759 57.0006 88.9406C56.8828 88.6071 56.8006 88.2819 56.7538 87.9649C56.7052 87.6464 56.6808 87.3201 56.6808 86.9866ZM62.1304 84.5672C61.9433 84.5672 61.7761 84.6065 61.6283 84.6848C61.4805 84.7616 61.3599 84.8549 61.2665 84.965C61.1712 85.0751 61.0898 85.2227 61.0225 85.4079C60.9532 85.593 60.9028 85.7599 60.8711 85.9083C60.8394 86.0566 60.8141 86.2443 60.7953 86.4712C60.7785 86.6964 60.7681 86.8715 60.7645 86.9966C60.7625 87.12 60.7617 87.2793 60.7617 87.4745C60.7617 87.6629 60.7701 87.8415 60.7869 88.0099C60.8018 88.1783 60.8354 88.3577 60.8879 88.5478C60.9403 88.7362 61.0085 88.9014 61.0926 89.0432C61.1787 89.1833 61.2954 89.3009 61.4432 89.396C61.591 89.4928 61.761 89.5444 61.9537 89.5511C62.1536 89.5511 62.3315 89.5219 62.4866 89.4636C62.6417 89.4053 62.7718 89.3302 62.8764 89.2384C62.983 89.1466 63.0727 89.0232 63.1457 88.8681C63.2186 88.713 63.2738 88.5646 63.3111 88.4227C63.3504 88.2794 63.3804 88.1017 63.4009 87.8898C63.4214 87.6779 63.4346 87.4963 63.4402 87.3444C63.4438 87.191 63.4458 86.9984 63.4458 86.7664C63.4458 86.5963 63.4402 86.4379 63.4289 86.2911C63.4177 86.1442 63.3981 85.9808 63.37 85.8007C63.344 85.6223 63.298 85.4647 63.2326 85.3278C63.169 85.191 63.0915 85.0626 62.9998 84.9425C62.9101 84.8224 62.7903 84.7298 62.6408 84.6648C62.493 84.5997 62.3231 84.5672 62.1304 84.5672ZM78.4004 91.6052C78.2995 91.6936 78.0883 91.7461 77.7666 91.7629C77.4449 91.7796 77.0494 91.7754 76.5802 91.7504C76.109 91.7271 75.8574 91.7153 75.8257 91.7153C75.5152 91.7153 75.292 91.7111 75.1554 91.7028H74.471C74.3701 91.6745 74.2851 91.5409 74.2158 91.3025C74.1485 91.0641 74.0812 90.722 74.0139 90.2767C73.9485 89.8296 73.9137 89.5919 73.9101 89.5636C73.8913 89.1616 73.8176 88.8964 73.6885 88.768C73.5615 88.6397 73.3287 88.5754 72.9902 88.5754H72.6901V91.5552C72.6808 91.6052 72.6331 91.646 72.547 91.6778C72.4592 91.7111 72.3347 91.7328 72.174 91.7428C72.0113 91.7529 71.8674 91.7586 71.7421 91.7604C71.6167 91.7621 71.4512 91.7611 71.2456 91.7579C71.0401 91.7529 70.9147 91.7504 70.8698 91.7504H69.8826C69.3253 91.7504 68.9057 91.7546 68.6232 91.7629C68.5596 91.7396 68.4951 91.7111 68.4297 91.6778V82.5631C68.4297 82.4498 68.6129 82.393 68.9794 82.393H74.9506C75.9864 82.418 76.7745 82.6382 77.315 83.0535C77.8555 83.4689 78.1256 84.0551 78.1256 84.8124C78.1256 85.7982 77.5694 86.5187 76.4568 86.9741C76.6624 87.0309 76.8475 87.11 77.0121 87.2118C77.1748 87.3136 77.3114 87.4227 77.4216 87.5395C77.5318 87.6564 77.6283 87.7955 77.7105 87.9574C77.7927 88.1208 77.8563 88.2734 77.9012 88.4152C77.9461 88.5586 77.9862 88.728 78.0218 88.9231C78.0554 89.1183 78.0787 89.2877 78.0919 89.431C78.1068 89.5729 78.1247 89.742 78.1452 89.9389C78.1657 90.1373 78.1825 90.2935 78.1957 90.4068V90.9447C78.2089 91.0098 78.2509 91.1016 78.3219 91.2199C78.3929 91.3383 78.4377 91.4258 78.4565 91.4826C78.4565 91.5645 78.4377 91.6052 78.4004 91.6052ZM72.648 84.9825C72.648 85.2277 72.6508 85.4096 72.6564 85.528C72.66 85.6448 72.6853 85.7989 72.7321 85.9908C72.777 86.1827 72.8452 86.3193 72.9369 86.4012C73.1276 86.4012 73.3091 86.3829 73.481 86.3461C73.6529 86.3093 73.8184 86.2503 73.9774 86.1685C74.1364 86.0867 74.2627 85.9658 74.356 85.8057C74.4514 85.6438 74.4991 85.4512 74.4991 85.2277C74.4991 85.1009 74.4739 84.99 74.4234 84.895C74.3729 84.7999 74.3 84.7231 74.2046 84.6648C74.1073 84.608 74.0119 84.5622 73.9185 84.5272C73.8251 84.4939 73.711 84.4696 73.5763 84.4546C73.4417 84.4414 73.336 84.4321 73.2594 84.4271C73.1809 84.4239 73.0875 84.4221 72.9789 84.4221H72.8135C72.7442 84.4504 72.6993 84.5072 72.6788 84.5922C72.6584 84.6773 72.648 84.8074 72.648 84.9825ZM82.5654 91.7754H79.5504C79.4514 91.7754 79.3756 91.7661 79.3232 91.7478C79.269 91.7296 79.2343 91.7086 79.2194 91.6853C79.2026 91.6603 79.1765 91.6127 79.1409 91.5427V82.8584C79.1409 82.7683 79.1417 82.7033 79.1437 82.6632C79.1456 82.6214 79.154 82.5732 79.1689 82.5181C79.1821 82.4631 79.2034 82.4248 79.2334 82.403C79.2634 82.3798 79.3055 82.3605 79.3596 82.3455C79.4138 82.3287 79.4822 82.3205 79.5644 82.3205H82.3719C83.0301 82.3205 83.3591 82.3938 83.3591 82.5406V82.5531C83.3403 84.0676 83.3311 85.1952 83.3311 85.9358L85.2551 82.363L86.6715 82.368C88.6087 82.368 89.5772 82.4088 89.5772 82.4906C89.5772 82.5074 89.5679 82.5156 89.5491 82.5156C88.6628 83.94 87.7634 85.3571 86.851 86.7664V86.9391L87.1315 87.0967L89.9923 91.4876C89.9923 91.5527 89.9398 91.6245 89.8352 91.7028H85.4402L83.4825 88.2951C83.4545 88.5186 83.434 88.8438 83.4208 89.2709C83.406 89.698 83.3936 89.979 83.3844 90.1141V91.5552C83.3527 91.7021 83.0795 91.7754 82.5654 91.7754Z" fill="white"/>
</g>
</g>
</g>
</g>
</g>
</g>
</g>
</g>
</g>
</g>
<defs>
<clipPath id="clip0_2012_1133">
<rect width="132" height="132" fill="white"/>
</clipPath>
<clipPath id="clip1_2012_1133">
<rect width="132" height="132" fill="white" transform="translate(-0.205566)"/>
</clipPath>
<clipPath id="clip2_2012_1133">
<rect width="131.531" height="132" fill="white" transform="translate(0.0292969)"/>
</clipPath>
<clipPath id="clip3_2012_1133">
<rect width="131.531" height="132" fill="white" transform="translate(0.0292969)"/>
</clipPath>
<clipPath id="clip4_2012_1133">
<rect width="48.3951" height="52.8" fill="white" transform="translate(41.5972 39.6001)"/>
</clipPath>
<clipPath id="clip5_2012_1133">
<rect width="48.3951" height="52.8" fill="white" transform="translate(41.5972 39.6001)"/>
</clipPath>
<clipPath id="clip6_2012_1133">
<rect width="48.3951" height="52.8" fill="white" transform="translate(41.5972 39.6001)"/>
</clipPath>
<clipPath id="clip7_2012_1133">
<rect width="48.3951" height="52.8" fill="white" transform="translate(41.5972 39.6001)"/>
</clipPath>
<clipPath id="clip8_2012_1133">
<rect width="48.3951" height="52.8" fill="white" transform="translate(41.5972 39.6001)"/>
</clipPath>
<clipPath id="clip9_2012_1133">
<rect width="48.3951" height="52.8" fill="white" transform="translate(41.5972 39.6001)"/>
</clipPath>
</defs>
</svg>
